# xmcd
#
# Track frame offsets:
#	150
#	11651
#	22533
#	36935
#	52436
#
# Disc length: 885 seconds
#
# Revision: 0
# Processed by: cddbd v1.5.2PL0 Copyright (c) Steve Scherf et al.
# Submitted via: audiograbber 1.83.01
#
DISCID=37037305
DTITLE=Ei o tietoo - koiuvimat
DYEAR=1900
DGENRE=
TTITLE0=hellurei
TTITLE1=mitä kuuluu
TTITLE2=eipä mittään
TTITLE3=eikö tosiaan
TTITLE4=no ei
EXTD=
EXTT0=
EXTT1=
EXTT2=
EXTT3=
EXTT4=
PLAYORDER=
